REM MD5 a4cb2a024162cf3a22896d885c538858
FILE "Play Fun 12-99 (Germany).bin" BINARY
  TRACK 01 MODE2/2352
    INDEX 01 00:00:00
  TRACK 02 AUDIO
    INDEX 00 32:29:49
    INDEX 01 32:31:49
  TRACK 03 AUDIO
    INDEX 00 37:12:67
    INDEX 01 37:14:67
REM LEADOUT 42:00:64
